<svg width="40" height="40" viewBox="0 0 40 40" fill="none" xmlns="http://www.w3.org/2000/svg" xmlns:xlink="http://www.w3.org/1999/xlink">
<path d="M39.979,20.374C39.979,18.735 39.843,17.54 39.548,16.299L20.398,16.299L20.398,23.696L31.639,23.696C31.412,25.534 30.189,28.302 27.469,30.163L27.431,30.41L33.486,34.994L33.905,35.035C37.758,31.558 39.979,26.442 39.979,20.374Z" fill="#4285F4"/>
<path d="M20.398,39.863C25.905,39.863 30.528,38.091 33.905,35.035L27.469,30.163C25.747,31.336 23.435,32.156 20.398,32.156C15.005,32.156 10.427,28.679 8.795,23.873L8.556,23.893L2.26,28.655L2.177,28.878C5.532,35.389 12.421,39.863 20.398,39.863Z" fill="#34A853"/>
<path d="M8.795,23.873C8.365,22.633 8.115,21.304 8.115,19.931C8.115,18.558 8.365,17.23 8.773,15.989L8.761,15.725L2.386,10.888L2.178,10.984C0.795,13.686 0.002,16.72 0.002,19.931C0.002,23.143 0.795,26.177 2.178,28.878L8.795,23.873Z" fill="#FBBC05"/>
<path d="M20.398,7.707C24.228,7.707 26.812,9.323 28.285,10.674L34.041,5.182C30.506,1.971 25.905,0 20.398,0C12.421,0 5.532,4.473 2.177,10.984L8.772,15.989C10.427,11.184 15.005,7.707 20.398,7.707Z" fill="#EB4335"/>
</svg>
