<svg width="40" height="40" viewBox="0 0 40 40" fill="none" xmlns="http://www.w3.org/2000/svg" xmlns:xlink="http://www.w3.org/1999/xlink">
<path d="M38.979,20.374C38.979,18.735 38.843,17.539 38.548,16.299L19.398,16.299L19.398,23.696L30.639,23.696C30.412,25.534 29.189,28.302 26.469,30.163L26.431,30.41L32.486,34.994L32.905,35.035C36.758,31.558 38.979,26.442 38.979,20.374Z" fill="#4285F4"/>
<path d="M19.398,39.863C24.905,39.863 29.528,38.091 32.905,35.035L26.469,30.163C24.747,31.337 22.435,32.156 19.398,32.156C14.005,32.156 9.427,28.679 7.795,23.874L7.556,23.893L1.26,28.655L1.177,28.878C4.532,35.389 11.421,39.863 19.398,39.863Z" fill="#34A853"/>
<path d="M7.795,23.873C7.365,22.633 7.115,21.304 7.115,19.931C7.115,18.558 7.365,17.23 7.773,15.989L7.761,15.725L1.386,10.887L1.178,10.984C-0.205,13.686 -0.998,16.72 -0.998,19.931C-0.998,23.143 -0.205,26.176 1.178,28.878L7.795,23.873Z" fill="#FBBC05"/>
<path d="M19.398,7.707C23.228,7.707 25.812,9.323 27.285,10.674L33.041,5.182C29.506,1.971 24.905,0 19.398,0C11.421,0 4.532,4.473 1.177,10.984L7.772,15.989C9.427,11.184 14.005,7.707 19.398,7.707Z" fill="#EB4335"/>
</svg>
