<svg width="46" height="42" viewBox="0 0 46 42" fill="none" xmlns="http://www.w3.org/2000/svg" xmlns:xlink="http://www.w3.org/1999/xlink">
<path d="M39.68,6.22L38.265,7.634L38.266,7.635L39.68,6.22ZM31.9,2.996L31.9,4.996L31.9,2.996ZM24.12,6.22L25.534,7.634L25.535,7.634L24.12,6.22ZM22,8.34L20.586,9.754C21.367,10.535 22.633,10.535 23.414,9.754L22,8.34ZM19.88,6.22L18.466,7.634L18.466,7.634L19.88,6.22ZM4.32,21.78L2.906,23.194L2.906,23.194L4.32,21.78ZM6.44,23.9L5.026,25.314L6.44,23.9ZM22,39.46L20.586,40.874C21.367,41.655 22.633,41.655 23.414,40.874L22,39.46ZM39.68,21.78L38.266,20.365L38.266,20.366L39.68,21.78ZM41.095,4.806C39.887,3.598 38.454,2.64 36.876,1.986L35.345,5.682C36.437,6.134 37.43,6.798 38.265,7.634L41.095,4.806ZM36.876,1.986C35.299,1.333 33.608,0.996 31.9,0.996L31.9,4.996C33.082,4.996 34.253,5.229 35.345,5.682L36.876,1.986ZM31.9,0.996C30.192,0.996 28.501,1.333 26.924,1.986L28.455,5.682C29.547,5.229 30.718,4.996 31.9,4.996L31.9,0.996ZM26.924,1.986C25.346,2.64 23.913,3.598 22.705,4.806L25.535,7.634C26.37,6.798 27.363,6.134 28.455,5.682L26.924,1.986ZM22.706,4.806L20.586,6.926L23.414,9.754L25.534,7.634L22.706,4.806ZM23.414,6.926L21.294,4.806L18.466,7.634L20.586,9.754L23.414,6.926ZM21.294,4.806C18.856,2.367 15.548,0.997 12.1,0.997L12.1,4.997C14.488,4.997 16.777,5.946 18.466,7.634L21.294,4.806ZM12.1,0.997C8.651,0.997 5.344,2.367 2.906,4.806L5.734,7.634C7.423,5.946 9.712,4.997 12.1,4.997L12.1,0.997ZM2.906,4.806C0.467,7.244 -0.903,10.551 -0.903,14L3.097,14C3.097,11.612 4.046,9.323 5.734,7.634L2.906,4.806ZM-0.903,14C-0.903,17.448 0.467,20.756 2.906,23.194L5.734,20.366C4.046,18.677 3.097,16.388 3.097,14L-0.903,14ZM2.906,23.194L5.026,25.314L7.854,22.486L5.734,20.366L2.906,23.194ZM5.026,25.314L20.586,40.874L23.414,38.046L7.854,22.486L5.026,25.314ZM23.414,40.874L38.974,25.314L36.146,22.486L20.586,38.046L23.414,40.874ZM38.974,25.314L41.094,23.194L38.266,20.366L36.146,22.486L38.974,25.314ZM41.094,23.195C42.302,21.987 43.26,20.554 43.913,18.976L40.218,17.445C39.766,18.537 39.102,19.53 38.266,20.365L41.094,23.195ZM43.913,18.976C44.567,17.399 44.904,15.708 44.904,14L40.904,14C40.904,15.182 40.671,16.353 40.218,17.445L43.913,18.976ZM44.904,14C44.904,12.292 44.567,10.601 43.913,9.024L40.218,10.555C40.671,11.647 40.904,12.818 40.904,14L44.904,14ZM43.913,9.024C43.26,7.446 42.302,6.013 41.094,4.805L38.266,7.635C39.102,8.47 39.766,9.463 40.218,10.555L43.913,9.024Z" fill="#000000"/>
</svg>
